solid OpenSCAD_Model
  facet normal -1 0 0
    outer loop
      vertex 12 0 0
      vertex 12 39 20
      vertex 12 39 0
    endloop
  endfacet
  facet normal -1 -0 0
    outer loop
      vertex 12 39 20
      vertex 12 0 0
      vertex 12 0 20
    endloop
  endfacet
  facet normal 0 0 1
    outer loop
      vertex 15 42 20
      vertex 12 39 20
      vertex 15 0 20
    endloop
  endfacet
  facet normal 0 0 1
    outer loop
      vertex 15 42 20
      vertex -12 39 20
      vertex 12 39 20
    endloop
  endfacet
  facet normal -0 0 1
    outer loop
      vertex -15 42 20
      vertex -12 39 20
      vertex 15 42 20
    endloop
  endfacet
  facet normal 0 0 1
    outer loop
      vertex -15 0 20
      vertex -12 39 20
      vertex -15 42 20
    endloop
  endfacet
  facet normal 0 0 1
    outer loop
      vertex -12 39 20
      vertex -15 0 20
      vertex -12 0 20
    endloop
  endfacet
  facet normal 0 0 1
    outer loop
      vertex 15 0 20
      vertex 12 39 20
      vertex 12 0 20
    endloop
  endfacet
  facet normal 1 0 0
    outer loop
      vertex 15 42 20
      vertex 15 11.7143 4
      vertex 15 42 0
    endloop
  endfacet
  facet normal 1 -0 0
    outer loop
      vertex 15 0 20
      vertex 15 11.7143 4
      vertex 15 42 20
    endloop
  endfacet
  facet normal 1 0 0
    outer loop
      vertex 15 11.7143 4
      vertex 15 0 20
      vertex 15 0.714285 4
    endloop
  endfacet
  facet normal 1 0 0
    outer loop
      vertex 15 0 0
      vertex 15 0.714285 4
      vertex 15 0 20
    endloop
  endfacet
  facet normal 1 0 0
    outer loop
      vertex 15 0.714285 4
      vertex 15 0 0
      vertex 15 0.714285 0
    endloop
  endfacet
  facet normal 1 0 0
    outer loop
      vertex 15 42 0
      vertex 15 11.7143 4
      vertex 15 11.7143 0
    endloop
  endfacet
  facet normal 0 0 -1
    outer loop
      vertex -15 0.714285 0
      vertex -12 0 0
      vertex -15 0 0
    endloop
  endfacet
  facet normal 0 0 -1
    outer loop
      vertex 12 0 0
      vertex 15 0.714285 0
      vertex 15 0 0
    endloop
  endfacet
  facet normal -0 0 -1
    outer loop
      vertex 15 0.714285 0
      vertex 12 0 0
      vertex 15 11.7143 0
    endloop
  endfacet
  facet normal -0 0 -1
    outer loop
      vertex 15 11.7143 0
      vertex 12 0 0
      vertex 12 39 0
    endloop
  endfacet
  facet normal 0 0 -1
    outer loop
      vertex 15 11.7143 0
      vertex 12 39 0
      vertex 15 42 0
    endloop
  endfacet
  facet normal 0 0 -1
    outer loop
      vertex -12 39 0
      vertex 15 42 0
      vertex 12 39 0
    endloop
  endfacet
  facet normal 0 0 -1
    outer loop
      vertex -15 11.7143 0
      vertex -12 0 0
      vertex -15 0.714285 0
    endloop
  endfacet
  facet normal 0 0 -1
    outer loop
      vertex -12 0 0
      vertex -15 11.7143 0
      vertex -12 39 0
    endloop
  endfacet
  facet normal 0 0 -1
    outer loop
      vertex -12 39 0
      vertex -15 42 0
      vertex 15 42 0
    endloop
  endfacet
  facet normal 0 0 -1
    outer loop
      vertex -15 42 0
      vertex -12 39 0
      vertex -15 11.7143 0
    endloop
  endfacet
  facet normal 0 0 -1
    outer loop
      vertex 15 0.714285 0
      vertex 29 11.7143 0
      vertex 29 0.714285 0
    endloop
  endfacet
  facet normal -0 0 -1
    outer loop
      vertex 29 11.7143 0
      vertex 15 0.714285 0
      vertex 15 11.7143 0
    endloop
  endfacet
  facet normal 0 0 -1
    outer loop
      vertex -29 0.714285 0
      vertex -15 11.7143 0
      vertex -15 0.714285 0
    endloop
  endfacet
  facet normal -0 0 -1
    outer loop
      vertex -15 11.7143 0
      vertex -29 0.714285 0
      vertex -29 11.7143 0
    endloop
  endfacet
  facet normal 0 -1 0
    outer loop
      vertex 12 0 0
      vertex 15 0 20
      vertex 12 0 20
    endloop
  endfacet
  facet normal 0 -1 -0
    outer loop
      vertex 15 0 20
      vertex 12 0 0
      vertex 15 0 0
    endloop
  endfacet
  facet normal 0 1 -0
    outer loop
      vertex 15 42 0
      vertex -15 42 20
      vertex 15 42 20
    endloop
  endfacet
  facet normal 0 1 0
    outer loop
      vertex -15 42 20
      vertex 15 42 0
      vertex -15 42 0
    endloop
  endfacet
  facet normal -1 0 0
    outer loop
      vertex -15 0.714285 0
      vertex -15 0 0
      vertex -15 0.714285 4
    endloop
  endfacet
  facet normal -1 0 0
    outer loop
      vertex -15 11.7143 4
      vertex -15 42 0
      vertex -15 11.7143 0
    endloop
  endfacet
  facet normal -1 0 0
    outer loop
      vertex -15 42 0
      vertex -15 11.7143 4
      vertex -15 42 20
    endloop
  endfacet
  facet normal -1 0 0
    outer loop
      vertex -15 0 20
      vertex -15 11.7143 4
      vertex -15 0.714285 4
    endloop
  endfacet
  facet normal -1 0 0
    outer loop
      vertex -15 11.7143 4
      vertex -15 0 20
      vertex -15 42 20
    endloop
  endfacet
  facet normal -1 0 0
    outer loop
      vertex -15 0 20
      vertex -15 0.714285 4
      vertex -15 0 0
    endloop
  endfacet
  facet normal 1 -0 0
    outer loop
      vertex -12 0 20
      vertex -12 39 0
      vertex -12 39 20
    endloop
  endfacet
  facet normal 1 0 0
    outer loop
      vertex -12 39 0
      vertex -12 0 20
      vertex -12 0 0
    endloop
  endfacet
  facet normal 0 -1 0
    outer loop
      vertex -15 0 0
      vertex -12 0 20
      vertex -15 0 20
    endloop
  endfacet
  facet normal 0 -1 -0
    outer loop
      vertex -12 0 20
      vertex -15 0 0
      vertex -12 0 0
    endloop
  endfacet
  facet normal 1 -0 0
    outer loop
      vertex 29 0.714285 4
      vertex 29 11.7143 0
      vertex 29 11.7143 4
    endloop
  endfacet
  facet normal 1 0 0
    outer loop
      vertex 29 11.7143 0
      vertex 29 0.714285 4
      vertex 29 0.714285 0
    endloop
  endfacet
  facet normal -0 0 1
    outer loop
      vertex 15 11.7143 4
      vertex 29 0.714285 4
      vertex 29 11.7143 4
    endloop
  endfacet
  facet normal 0 0 1
    outer loop
      vertex 29 0.714285 4
      vertex 15 11.7143 4
      vertex 15 0.714285 4
    endloop
  endfacet
  facet normal 0 -1 0
    outer loop
      vertex 15 0.714285 0
      vertex 29 0.714285 4
      vertex 15 0.714285 4
    endloop
  endfacet
  facet normal 0 -1 -0
    outer loop
      vertex 29 0.714285 4
      vertex 15 0.714285 0
      vertex 29 0.714285 0
    endloop
  endfacet
  facet normal 0 1 -0
    outer loop
      vertex 29 11.7143 0
      vertex 15 11.7143 4
      vertex 29 11.7143 4
    endloop
  endfacet
  facet normal 0 1 0
    outer loop
      vertex 15 11.7143 4
      vertex 29 11.7143 0
      vertex 15 11.7143 0
    endloop
  endfacet
  facet normal -0 0 1
    outer loop
      vertex -29 11.7143 4
      vertex -15 0.714285 4
      vertex -15 11.7143 4
    endloop
  endfacet
  facet normal 0 0 1
    outer loop
      vertex -15 0.714285 4
      vertex -29 11.7143 4
      vertex -29 0.714285 4
    endloop
  endfacet
  facet normal 0 -1 0
    outer loop
      vertex -29 0.714285 0
      vertex -15 0.714285 4
      vertex -29 0.714285 4
    endloop
  endfacet
  facet normal 0 -1 -0
    outer loop
      vertex -15 0.714285 4
      vertex -29 0.714285 0
      vertex -15 0.714285 0
    endloop
  endfacet
  facet normal -1 0 0
    outer loop
      vertex -29 0.714285 0
      vertex -29 11.7143 4
      vertex -29 11.7143 0
    endloop
  endfacet
  facet normal -1 -0 0
    outer loop
      vertex -29 11.7143 4
      vertex -29 0.714285 0
      vertex -29 0.714285 4
    endloop
  endfacet
  facet normal 0 1 -0
    outer loop
      vertex -15 11.7143 0
      vertex -29 11.7143 4
      vertex -15 11.7143 4
    endloop
  endfacet
  facet normal 0 1 0
    outer loop
      vertex -29 11.7143 4
      vertex -15 11.7143 0
      vertex -29 11.7143 0
    endloop
  endfacet
  facet normal 0 -1 0
    outer loop
      vertex -12 39 0
      vertex 12 39 20
      vertex -12 39 20
    endloop
  endfacet
  facet normal 0 -1 -0
    outer loop
      vertex 12 39 20
      vertex -12 39 0
      vertex 12 39 0
    endloop
  endfacet
endsolid OpenSCAD_Model
